<svg width="45" height="40" viewBox="0 0 45 40" fill="none" xmlns="http://www.w3.org/2000/svg">
<path fill-rule="evenodd" clip-rule="evenodd" d="M0.0271191 23.9502C0.0181749 19.2414 0.0263735 11.2772 0.0274915 10.175C0.036063 1.78034 -0.0203963 1.78071 0.00811318 1.05119C0.0125853 0.936707 0.0464983 0.0651528 0.999798 0.0171261C1.32216 0.000744861 39.898 -0.00502614 41.9918 0.00483981C44.5883 0.0171257 44.6736 -0.032204 44.8778 0.252978C45.0931 0.553424 44.9593 3.96891 44.9552 6.82482C44.954 7.48193 44.6444 7.44302 44.2275 7.46369C43.0663 7.52102 43.0665 7.51339 29.6938 7.4877C19.5897 7.46834 12.6738 7.51469 9.01005 7.50594C8.33308 7.50445 7.81339 7.3788 7.69916 7.75259C7.65109 7.90951 7.6632 7.91007 7.66004 9.80285C7.65519 12.7183 7.65668 12.7142 7.65575 12.9672C7.63041 20.2723 7.6619 37.8004 7.66171 38.47C7.66171 39.6282 7.78786 40.0077 6.95903 39.9955C5.20579 39.9694 3.96032 40.0105 1.92943 39.9973C0.383022 39.9873 0.0658766 40.1083 0.038485 39.402C0.017988 38.8724 0.0263737 25.1865 0.0271191 23.9502Z" fill="#FB971E"/>
</svg>
