<svg width="561" height="120" viewBox="0 0 561 120" fill="none" xmlns="http://www.w3.org/2000/svg">
<rect x="0.270752" width="560" height="120" rx="60" fill="#00E4E4"/>
<rect x="15.2708" y="10" width="530" height="100" rx="50" stroke="#FF00CC" stroke-width="2"/>
<path d="M144.631 77V43.4H161.815C166.231 43.4 169.527 44.216 171.703 45.848C173.879 47.448 174.967 49.56 174.967 52.184C174.967 53.912 174.503 55.432 173.575 56.744C172.679 58.024 171.399 59.048 169.735 59.816C168.103 60.552 166.151 60.92 163.879 60.92L164.839 58.616C167.207 58.616 169.271 58.984 171.031 59.72C172.791 60.424 174.151 61.464 175.111 62.84C176.103 64.184 176.599 65.832 176.599 67.784C176.599 70.696 175.415 72.968 173.047 74.6C170.711 76.2 167.287 77 162.775 77H144.631ZM154.039 70.136H162.007C163.639 70.136 164.871 69.864 165.703 69.32C166.567 68.744 166.999 67.88 166.999 66.728C166.999 65.576 166.567 64.728 165.703 64.184C164.871 63.608 163.639 63.32 162.007 63.32H153.367V56.744H160.567C162.167 56.744 163.367 56.472 164.167 55.928C164.967 55.384 165.367 54.568 165.367 53.48C165.367 52.392 164.967 51.592 164.167 51.08C163.367 50.536 162.167 50.264 160.567 50.264H154.039V70.136ZM205.056 77.672C200.096 77.672 196.224 76.312 193.44 73.592C190.656 70.872 189.264 67.016 189.264 62.024V43.4H198.768V61.736C198.768 64.616 199.328 66.68 200.448 67.928C201.6 69.176 203.168 69.8 205.152 69.8C207.136 69.8 208.688 69.176 209.808 67.928C210.928 66.68 211.488 64.616 211.488 61.736V43.4H220.848V62.024C220.848 67.016 219.456 70.872 216.672 73.592C213.888 76.312 210.016 77.672 205.056 77.672ZM237.99 77V62.792L240.198 68.504L225.174 43.4H235.206L246.054 61.592H240.246L251.142 43.4H260.358L245.382 68.504L247.494 62.792V77H237.99ZM282.098 77V43.4H289.922L308.45 65.768H304.754V43.4H314.066V77H306.242L287.714 54.632H291.41V77H282.098ZM340.391 77.672C337.703 77.672 335.223 77.24 332.951 76.376C330.679 75.512 328.695 74.296 326.999 72.728C325.335 71.128 324.039 69.272 323.111 67.16C322.183 65.048 321.719 62.728 321.719 60.2C321.719 57.672 322.183 55.352 323.111 53.24C324.039 51.128 325.335 49.288 326.999 47.72C328.695 46.12 330.679 44.888 332.951 44.024C335.223 43.16 337.703 42.728 340.391 42.728C343.111 42.728 345.591 43.16 347.831 44.024C350.103 44.888 352.071 46.12 353.735 47.72C355.399 49.288 356.695 51.128 357.623 53.24C358.583 55.352 359.063 57.672 359.063 60.2C359.063 62.728 358.583 65.064 357.623 67.208C356.695 69.32 355.399 71.16 353.735 72.728C352.071 74.296 350.103 75.512 347.831 76.376C345.591 77.24 343.111 77.672 340.391 77.672ZM340.391 69.8C341.671 69.8 342.855 69.576 343.943 69.128C345.063 68.68 346.023 68.04 346.823 67.208C347.655 66.344 348.295 65.32 348.743 64.136C349.223 62.952 349.463 61.64 349.463 60.2C349.463 58.728 349.223 57.416 348.743 56.264C348.295 55.08 347.655 54.072 346.823 53.24C346.023 52.376 345.063 51.72 343.943 51.272C342.855 50.824 341.671 50.6 340.391 50.6C339.111 50.6 337.911 50.824 336.791 51.272C335.703 51.72 334.743 52.376 333.911 53.24C333.111 54.072 332.471 55.08 331.991 56.264C331.543 57.416 331.319 58.728 331.319 60.2C331.319 61.64 331.543 62.952 331.991 64.136C332.471 65.32 333.111 66.344 333.911 67.208C334.743 68.04 335.703 68.68 336.791 69.128C337.911 69.576 339.111 69.8 340.391 69.8ZM373.897 77L363.001 43.4H372.793L381.961 72.488H377.017L386.665 43.4H395.401L404.521 72.488H399.769L409.225 43.4H418.297L407.401 77H397.225L389.449 52.28H392.185L384.073 77H373.897Z" fill="#FF00CC"/>
</svg>
