<svg width="245" height="92" viewBox="0 0 245 92" fill="none" xmlns="http://www.w3.org/2000/svg">
<path fill-rule="evenodd" clip-rule="evenodd" d="M238.439 33.6304C238.429 31.9224 238.439 7.8483 238.429 6.93902C238.421 6.29428 238.048 6.41996 237.41 6.40296C237.193 6.39708 235.655 6.35593 234.701 6.37563C231.976 6.43203 212.304 6.35402 208.266 6.402C207.023 6.41678 206.627 6.54071 206.589 5.98351C206.572 5.72914 206.574 1.6556 206.586 1.22138C206.607 0.389004 206.539 0.0896721 206.997 0.0221478C207.089 0.00848404 214.559 0.00340054 215.432 0.00324166C227.983 0.000222927 243.478 -0.0105808 244.261 0.0361301C244.342 0.0410554 244.85 0.071401 244.978 0.752205C245.015 0.951441 244.994 0.952872 244.994 3.28476C244.991 28.8652 244.996 28.8647 244.985 31.0889C244.972 33.8703 245.015 33.9804 244.726 34.0897C244.619 34.1299 244.552 34.155 243.3 34.1508C239.194 34.1372 239.195 34.1591 238.839 34.138C238.683 34.1288 238.5 34.072 238.443 33.7808C238.433 33.7316 238.448 33.6796 238.439 33.6304Z" fill="#F78629"/>
<path fill-rule="evenodd" clip-rule="evenodd" d="M0.0231762 20.4417C0.0155324 16.4227 0.022539 9.62514 0.0234945 8.68441C0.0308198 1.51953 -0.0174309 1.51985 0.0069336 0.897199C0.0107555 0.799487 0.0397379 0.0556084 0.854436 0.0146172C1.12993 0.000635745 34.0972 -0.00428985 35.8866 0.00413082C38.1055 0.0146169 38.1785 -0.0274864 38.353 0.215919C38.5369 0.472352 38.4226 3.38749 38.4191 5.82504C38.4181 6.38589 38.1535 6.35268 37.7972 6.37032C36.8048 6.41925 36.805 6.41274 25.3766 6.39081C16.7415 6.37429 10.8311 6.41385 7.70007 6.40638C7.12153 6.40511 6.67739 6.29787 6.57978 6.6169C6.53869 6.75084 6.54904 6.75131 6.54634 8.36681C6.5422 10.8552 6.54347 10.8517 6.54267 11.0676C6.52102 17.3026 6.54793 32.2629 6.54777 32.8344C6.54777 33.823 6.65558 34.1469 5.94726 34.1364C4.44892 34.1142 3.38452 34.1493 1.64891 34.138C0.327334 34.1295 0.0562987 34.2327 0.0328897 33.6299C0.0153727 33.1779 0.0225392 21.4969 0.0231762 20.4417Z" fill="#F78629"/>
<path fill-rule="evenodd" clip-rule="evenodd" d="M238.462 81.1337C238.47 79.7705 238.446 59.1854 238.475 58.4117C238.477 58.3729 238.489 58.0595 238.699 57.9822C239.02 57.8648 242.44 57.9181 242.504 57.9196C244.065 57.9616 244.611 57.9187 244.721 57.9729C244.988 58.1049 245.002 58.2188 244.998 59.8432C244.996 60.25 244.986 64.03 244.971 64.9279C244.937 66.9617 244.991 69.0225 244.988 71.6009C244.97 88.7032 244.953 88.7021 244.962 90.1893C244.963 90.3178 244.969 91.3875 244.738 91.7819C244.558 92.0884 243.688 91.9501 241.867 91.9632C231.643 92.0361 222.819 91.9503 218.618 91.9849C217.802 91.9916 217.584 91.9935 208.426 91.9875C206.982 91.9865 206.612 92.1154 206.57 91.4567C206.54 90.9881 206.556 88.8299 206.558 88.6016C206.574 86.3577 206.55 86.3316 206.666 86.2115C206.783 86.0917 206.926 86.0806 208.266 86.0687C208.801 86.0639 213.623 86.021 214.955 86.0245C220.157 86.0326 225.359 86.0409 230.561 86.0491C231.159 86.0511 237.296 86.0719 238.042 86.0253C238.295 86.0096 238.402 85.7574 238.404 85.7532C238.46 85.5797 238.462 81.5033 238.462 81.1337Z" fill="#F78629"/>
<path fill-rule="evenodd" clip-rule="evenodd" d="M0.0247796 59.2132C0.0246204 58.2812 -0.0115281 58.1701 0.159501 58.0281C0.251386 57.9518 0.269858 57.9366 1.6494 57.922C1.95515 57.9188 4.59082 57.891 5.47192 57.9019C6.10078 57.9099 6.52007 57.7958 6.52883 58.4192C6.60256 63.7182 6.52134 63.7165 6.53536 65.8866C6.57135 71.4489 6.53329 83.1702 6.54364 83.9994C6.56593 85.7661 6.47755 86.0764 6.90258 86.0945C7.19559 86.1071 7.19415 86.0469 10.5673 86.0686C13.7168 86.089 13.7152 86.0338 15.3446 86.0639C17.7134 86.1074 17.9394 86.0056 19.6446 86.0492C21.7734 86.1037 22.0404 86.026 23.3071 86.0364C25.2976 86.0526 25.2955 86.0349 27.2879 86.0299C27.6446 86.0289 27.6441 86.0508 31.7469 86.0484C32.1928 86.0483 37.1103 86.0456 37.3209 86.0486C38.0219 86.0585 38.2804 85.9933 38.389 86.3897C38.4301 86.5392 38.4642 90.5437 38.4251 91.466C38.3989 92.084 37.9065 91.9799 37.6393 91.9822C33.5887 92.0151 32.8121 91.9564 31.4286 91.9669C24.2496 92.0211 24.2501 91.9744 23.6259 91.9817C20.1339 92.0232 13.0633 91.9734 9.9303 91.9836C9.19125 91.9861 1.08472 92.0125 0.692495 91.9559C0.554588 91.9361 -0.00165408 91.8559 0.0230289 90.3532C0.0397497 89.3317 0.0351312 82.6071 0.0346535 81.9334C0.0313093 74.3601 0.0279646 66.7867 0.0247796 59.2132Z" fill="#F78629"/>
<path d="M28.096 58V31.18H34.54V41.8H34.648L42.244 31.18H49.3L41.2 41.944L50.812 58H43.792L37.456 47.02L34.54 50.98V58H28.096ZM54.3043 58V31.18H60.7483V58H54.3043ZM72.2182 58L64.1902 31.18H70.9942L74.0542 43.42C74.4622 44.86 74.8102 46.276 75.0982 47.668C75.4102 49.06 75.7582 50.5 76.1422 51.988H76.3222C76.7302 50.5 77.0782 49.06 77.3662 47.668C77.6782 46.276 78.0262 44.86 78.4102 43.42L81.4342 31.18H87.9862L79.9582 58H72.2182ZM101.847 58.504C99.4231 58.504 97.2871 57.952 95.4391 56.848C93.5911 55.72 92.1511 54.112 91.1191 52.024C90.0871 49.912 89.5711 47.392 89.5711 44.464C89.5711 41.536 90.0871 39.052 91.1191 37.012C92.1511 34.948 93.5911 33.388 95.4391 32.332C97.2871 31.252 99.4231 30.712 101.847 30.712C104.295 30.712 106.431 31.252 108.255 32.332C110.103 33.412 111.543 34.972 112.575 37.012C113.607 39.052 114.123 41.536 114.123 44.464C114.123 47.392 113.607 49.912 112.575 52.024C111.543 54.112 110.103 55.72 108.255 56.848C106.431 57.952 104.295 58.504 101.847 58.504ZM101.847 52.96C103.023 52.96 104.031 52.612 104.871 51.916C105.735 51.22 106.395 50.236 106.851 48.964C107.331 47.692 107.571 46.192 107.571 44.464C107.571 42.736 107.331 41.26 106.851 40.036C106.395 38.788 105.735 37.84 104.871 37.192C104.031 36.544 103.023 36.22 101.847 36.22C100.671 36.22 99.6511 36.544 98.7871 37.192C97.9471 37.84 97.2991 38.788 96.8431 40.036C96.3871 41.26 96.1591 42.736 96.1591 44.464C96.1591 46.192 96.3871 47.692 96.8431 48.964C97.2991 50.236 97.9471 51.22 98.7871 51.916C99.6511 52.612 100.671 52.96 101.847 52.96ZM133.946 58V36.544H126.71V31.18H147.662V36.544H140.39V58H133.946ZM147.227 58L155.543 31.18H163.247L171.563 58H164.795L161.447 44.608C161.087 43.264 160.727 41.836 160.367 40.324C160.031 38.812 159.683 37.372 159.323 36.004H159.179C158.867 37.396 158.531 38.848 158.171 40.36C157.811 41.848 157.463 43.264 157.127 44.608L153.779 58H147.227ZM152.879 51.844V46.876H165.839V51.844H152.879ZM175.097 58V31.18H181.541V52.6H191.981V58H175.097ZM197.333 58V31.18H203.777V41.8H203.885L211.481 31.18H218.537L210.437 41.944L220.049 58H213.029L206.693 47.02L203.777 50.98V58H197.333Z" fill="white"/>
</svg>
