<svg preserveAspectRatio="none" overflow="visible" style="display: block;" width="52" height="52" viewBox="0 0 52 52" fill="none" xmlns="http://www.w3.org/2000/svg">
<g id="mail">
<mask id="mask0_0_4" style="mask-type:alpha" maskUnits="userSpaceOnUse" x="0" y="0" width="52" height="52">
<rect id="Bounding box" width="52" height="52" fill="#D9D9D9"/>
</mask>
<g mask="url(#mask0_0_4)">
<path id="mail_2" d="M9.33218 42.25C8.23765 42.25 7.31122 41.8708 6.55289 41.1125C5.79456 40.3542 5.41539 39.4277 5.41539 38.3332V13.6668C5.41539 12.5723 5.79456 11.6458 6.55289 10.8875C7.31122 10.1292 8.23765 9.75 9.33218 9.75H42.6652C43.7598 9.75 44.6862 10.1292 45.4445 10.8875C46.2029 11.6458 46.582 12.5723 46.582 13.6668V38.3332C46.582 39.4277 46.2029 40.3542 45.4445 41.1125C44.6862 41.8708 43.7598 42.25 42.6652 42.25H9.33218ZM43.332 16.1249L27.0528 26.546C26.8863 26.6403 26.7141 26.7145 26.536 26.7686C26.3584 26.8228 26.1793 26.8499 25.9987 26.8499C25.8182 26.8499 25.639 26.8228 25.4614 26.7686C25.2834 26.7145 25.1111 26.6403 24.9446 26.546L8.66539 16.1249V38.3332C8.66539 38.5278 8.72786 38.6876 8.8528 38.8126C8.97775 38.9375 9.13754 39 9.33218 39H42.6652C42.8599 39 43.0197 38.9375 43.1446 38.8126C43.2696 38.6876 43.332 38.5278 43.332 38.3332V16.1249ZM25.9987 23.8333L42.9989 13H8.99851L25.9987 23.8333ZM8.66539 16.6248V14.1478V14.2123V14.1435V16.6248Z" fill="#434F8E"/>
</g>
</g>
</svg>
